<mxfile host="app.diagrams.net" modified="2020-11-09T03:25:12.617Z" agent="5.0 (X11; Linux x86_64) AppleWebKit/537.36 (KHTML, like Gecko) Chrome/85.0.4183.121 Safari/537.36" etag="XuFL_p2ZNaOUKLvjJNks" version="13.9.2" type="github">
  <diagram id="m8jxfTX7zfnuOzDWoaJZ" name="Page-1">
    <mxGraphModel dx="1350" dy="806" grid="1" gridSize="10" guides="1" tooltips="1" connect="1" arrows="1" fold="1" page="1" pageScale="1" pageWidth="827" pageHeight="1169" background="none" math="0" shadow="0">
      <root>
        <mxCell id="0" />
        <mxCell id="1" parent="0" />
        <mxCell id="KLg9rOwVtQOyIrAE73Sd-1" value="CRITIC" style="shape=cylinder3;whiteSpace=wrap;html=1;boundedLbl=1;backgroundOutline=1;size=15;fillColor=#fff2cc;strokeColor=#d6b656;" vertex="1" parent="1">
          <mxGeometry x="360" y="60" width="140" height="140" as="geometry" />
        </mxCell>
        <mxCell id="KLg9rOwVtQOyIrAE73Sd-2" value="" style="ellipse;whiteSpace=wrap;html=1;aspect=fixed;" vertex="1" parent="1">
          <mxGeometry x="65" y="355" width="250" height="250" as="geometry" />
        </mxCell>
        <mxCell id="KLg9rOwVtQOyIrAE73Sd-4" value="" style="ellipse;whiteSpace=wrap;html=1;aspect=fixed;" vertex="1" parent="1">
          <mxGeometry x="560" y="360" width="240" height="240" as="geometry" />
        </mxCell>
        <mxCell id="KLg9rOwVtQOyIrAE73Sd-5" value="AGENT" style="rounded=1;whiteSpace=wrap;html=1;fillColor=#f8cecc;strokeColor=#b85450;" vertex="1" parent="1">
          <mxGeometry x="140" y="540" width="100" height="40" as="geometry" />
        </mxCell>
        <mxCell id="KLg9rOwVtQOyIrAE73Sd-6" value="AGENT" style="rounded=1;whiteSpace=wrap;html=1;fillColor=#d5e8d4;strokeColor=#82b366;rotation=-60;" vertex="1" parent="1">
          <mxGeometry x="560" y="440" width="100" height="40" as="geometry" />
        </mxCell>
        <mxCell id="KLg9rOwVtQOyIrAE73Sd-7" value="" style="endArrow=classic;html=1;exitX=0.855;exitY=1;exitDx=0;exitDy=-4.35;exitPerimeter=0;" edge="1" parent="1" source="KLg9rOwVtQOyIrAE73Sd-1" target="KLg9rOwVtQOyIrAE73Sd-6">
          <mxGeometry width="50" height="50" relative="1" as="geometry">
            <mxPoint x="405" y="200" as="sourcePoint" />
            <mxPoint x="455" y="150" as="targetPoint" />
          </mxGeometry>
        </mxCell>
        <mxCell id="KLg9rOwVtQOyIrAE73Sd-8" value="" style="endArrow=classic;html=1;exitX=0.145;exitY=1;exitDx=0;exitDy=-4.35;exitPerimeter=0;" edge="1" parent="1" source="KLg9rOwVtQOyIrAE73Sd-1" target="KLg9rOwVtQOyIrAE73Sd-5">
          <mxGeometry width="50" height="50" relative="1" as="geometry">
            <mxPoint x="415" y="210" as="sourcePoint" />
            <mxPoint x="606.6681931163184" y="453.09136687923296" as="targetPoint" />
          </mxGeometry>
        </mxCell>
      </root>
    </mxGraphModel>
  </diagram>
</mxfile>
